<svg width="30" height="30" viewBox="0 0 38 38" fill="none" xmlns="http://www.w3.org/2000/svg">
<path d="M19.0003 3.16675C10.2445 3.16675 3.16699 10.2442 3.16699 19.0001C3.16699 27.7559 10.2445 34.8334 19.0003 34.8334C27.7562 34.8334 34.8337 27.7559 34.8337 19.0001C34.8337 10.2442 27.7562 3.16675 19.0003 3.16675ZM19.0003 31.6667C12.0178 31.6667 6.33366 25.9826 6.33366 19.0001C6.33366 12.0176 12.0178 6.33341 19.0003 6.33341C25.9828 6.33341 31.667 12.0176 31.667 19.0001C31.667 25.9826 25.9828 31.6667 19.0003 31.6667ZM24.6845 11.0834L19.0003 16.7676L13.3162 11.0834L11.0837 13.3159L16.7678 19.0001L11.0837 24.6842L13.3162 26.9167L19.0003 21.2326L24.6845 26.9167L26.917 24.6842L21.2328 19.0001L26.917 13.3159L24.6845 11.0834Z" fill="white"/>
</svg>
