<svg width="515" height="198" viewBox="0 0 515 198" fill="none" xmlns="http://www.w3.org/2000/svg">
<path d="M2.1 44C1.78 44 1.48 43.88 1.2 43.64C0.96 43.4 0.84 43.1 0.84 42.74C0.84 42.58 0.88 42.4 0.96 42.2L15.42 3.5C15.54 3.1 15.76 2.76 16.08 2.48C16.44 2.16 16.92 2 17.52 2H24.06C24.66 2 25.12 2.16 25.44 2.48C25.76 2.76 26 3.1 26.16 3.5L40.62 42.2C40.66 42.4 40.68 42.58 40.68 42.74C40.68 43.1 40.56 43.4 40.32 43.64C40.08 43.88 39.8 44 39.48 44H34.26C33.7 44 33.28 43.88 33 43.64C32.76 43.36 32.6 43.1 32.52 42.86L29.7 35.54H11.88L9.06 42.86C8.98 43.1 8.8 43.36 8.52 43.64C8.28 43.88 7.88 44 7.32 44H2.1ZM13.98 28.64H27.6L20.76 10.1L13.98 28.64ZM47.0616 55.4C46.6616 55.4 46.3216 55.26 46.0416 54.98C45.7616 54.7 45.6216 54.36 45.6216 53.96V14.24C45.6216 13.84 45.7616 13.5 46.0416 13.22C46.3216 12.94 46.6616 12.8 47.0616 12.8H51.8016C52.2416 12.8 52.5816 12.94 52.8216 13.22C53.1016 13.5 53.2416 13.84 53.2416 14.24V16.64C54.2016 15.36 55.4616 14.3 57.0216 13.46C58.5816 12.62 60.5216 12.2 62.8416 12.2C64.9616 12.2 66.8016 12.54 68.3616 13.22C69.9216 13.9 71.2216 14.88 72.2616 16.16C73.3016 17.4 74.1016 18.88 74.6616 20.6C75.2216 22.32 75.5416 24.22 75.6216 26.3C75.6616 26.98 75.6816 27.68 75.6816 28.4C75.6816 29.12 75.6616 29.84 75.6216 30.56C75.5816 32.56 75.2816 34.42 74.7216 36.14C74.1616 37.82 73.3416 39.3 72.2616 40.58C71.2216 41.82 69.9216 42.8 68.3616 43.52C66.8016 44.24 64.9616 44.6 62.8416 44.6C60.6816 44.6 58.8416 44.22 57.3216 43.46C55.8016 42.66 54.5616 41.62 53.6016 40.34V53.96C53.6016 54.36 53.4616 54.7 53.1816 54.98C52.9416 55.26 52.6016 55.4 52.1616 55.4H47.0616ZM60.6216 38.18C62.3416 38.18 63.6816 37.82 64.6416 37.1C65.6016 36.34 66.2816 35.36 66.6816 34.16C67.1216 32.96 67.3816 31.64 67.4616 30.2C67.5416 29 67.5416 27.8 67.4616 26.6C67.3816 25.16 67.1216 23.84 66.6816 22.64C66.2816 21.44 65.6016 20.48 64.6416 19.76C63.6816 19 62.3416 18.62 60.6216 18.62C58.9816 18.62 57.6416 19 56.6016 19.76C55.6016 20.52 54.8616 21.5 54.3816 22.7C53.9416 23.86 53.6816 25.06 53.6016 26.3C53.5616 27.02 53.5416 27.78 53.5416 28.58C53.5416 29.38 53.5616 30.16 53.6016 30.92C53.6416 32.12 53.9216 33.28 54.4416 34.4C54.9616 35.48 55.7216 36.38 56.7216 37.1C57.7216 37.82 59.0216 38.18 60.6216 38.18ZM83.917 55.4C83.517 55.4 83.177 55.26 82.897 54.98C82.617 54.7 82.477 54.36 82.477 53.96V14.24C82.477 13.84 82.617 13.5 82.897 13.22C83.177 12.94 83.517 12.8 83.917 12.8H88.657C89.097 12.8 89.437 12.94 89.677 13.22C89.957 13.5 90.097 13.84 90.097 14.24V16.64C91.057 15.36 92.317 14.3 93.877 13.46C95.437 12.62 97.377 12.2 99.697 12.2C101.817 12.2 103.657 12.54 105.217 13.22C106.777 13.9 108.077 14.88 109.117 16.16C110.157 17.4 110.957 18.88 111.517 20.6C112.077 22.32 112.397 24.22 112.477 26.3C112.517 26.98 112.537 27.68 112.537 28.4C112.537 29.12 112.517 29.84 112.477 30.56C112.437 32.56 112.137 34.42 111.577 36.14C111.017 37.82 110.197 39.3 109.117 40.58C108.077 41.82 106.777 42.8 105.217 43.52C103.657 44.24 101.817 44.6 99.697 44.6C97.537 44.6 95.697 44.22 94.177 43.46C92.657 42.66 91.417 41.62 90.457 40.34V53.96C90.457 54.36 90.317 54.7 90.037 54.98C89.797 55.26 89.457 55.4 89.017 55.4H83.917ZM97.477 38.18C99.197 38.18 100.537 37.82 101.497 37.1C102.457 36.34 103.137 35.36 103.537 34.16C103.977 32.96 104.237 31.64 104.317 30.2C104.397 29 104.397 27.8 104.317 26.6C104.237 25.16 103.977 23.84 103.537 22.64C103.137 21.44 102.457 20.48 101.497 19.76C100.537 19 99.197 18.62 97.477 18.62C95.837 18.62 94.497 19 93.457 19.76C92.457 20.52 91.717 21.5 91.237 22.7C90.797 23.86 90.537 25.06 90.457 26.3C90.417 27.02 90.397 27.78 90.397 28.58C90.397 29.38 90.417 30.16 90.457 30.92C90.497 32.12 90.777 33.28 91.297 34.4C91.817 35.48 92.577 36.38 93.577 37.1C94.577 37.82 95.877 38.18 97.477 38.18ZM120.773 44C120.373 44 120.033 43.86 119.753 43.58C119.473 43.3 119.333 42.96 119.333 42.56V2.84C119.333 2.44 119.473 2.1 119.753 1.82C120.033 1.54 120.373 1.4 120.773 1.4H125.753C126.153 1.4 126.493 1.54 126.773 1.82C127.053 2.1 127.193 2.44 127.193 2.84V42.56C127.193 42.96 127.053 43.3 126.773 43.58C126.493 43.86 126.153 44 125.753 44H120.773ZM137.88 44C137.48 44 137.14 43.86 136.86 43.58C136.58 43.3 136.44 42.96 136.44 42.56V14.24C136.44 13.84 136.58 13.5 136.86 13.22C137.14 12.94 137.48 12.8 137.88 12.8H142.86C143.3 12.8 143.64 12.94 143.88 13.22C144.16 13.5 144.3 13.84 144.3 14.24V42.56C144.3 42.96 144.16 43.3 143.88 43.58C143.64 43.86 143.3 44 142.86 44H137.88ZM137.64 7.64C137.2 7.64 136.84 7.52 136.56 7.28C136.32 7 136.2 6.64 136.2 6.2V1.88C136.2 1.48 136.32 1.14 136.56 0.859998C136.84 0.579999 137.2 0.439999 137.64 0.439999H143.1C143.54 0.439999 143.9 0.579999 144.18 0.859998C144.46 1.14 144.6 1.48 144.6 1.88V6.2C144.6 6.64 144.46 7 144.18 7.28C143.9 7.52 143.54 7.64 143.1 7.64H137.64ZM165.937 44.6C163.057 44.6 160.517 44.06 158.317 42.98C156.157 41.9 154.457 40.34 153.217 38.3C152.017 36.22 151.357 33.72 151.237 30.8C151.197 30.2 151.177 29.42 151.177 28.46C151.177 27.46 151.197 26.64 151.237 26C151.357 23.08 152.017 20.6 153.217 18.56C154.457 16.48 156.157 14.9 158.317 13.82C160.517 12.74 163.057 12.2 165.937 12.2C168.497 12.2 170.677 12.56 172.477 13.28C174.277 14 175.757 14.9 176.917 15.98C178.077 17.06 178.937 18.2 179.497 19.4C180.097 20.56 180.417 21.62 180.457 22.58C180.497 23.02 180.357 23.38 180.037 23.66C179.757 23.9 179.417 24.02 179.017 24.02H173.737C173.337 24.02 173.017 23.92 172.777 23.72C172.577 23.52 172.377 23.22 172.177 22.82C171.577 21.22 170.777 20.1 169.777 19.46C168.817 18.78 167.577 18.44 166.057 18.44C164.057 18.44 162.457 19.08 161.257 20.36C160.097 21.6 159.477 23.58 159.397 26.3C159.317 27.82 159.317 29.22 159.397 30.5C159.477 33.26 160.097 35.26 161.257 36.5C162.457 37.74 164.057 38.36 166.057 38.36C167.617 38.36 168.877 38.04 169.837 37.4C170.797 36.72 171.577 35.58 172.177 33.98C172.377 33.58 172.577 33.28 172.777 33.08C173.017 32.88 173.337 32.78 173.737 32.78H179.017C179.417 32.78 179.757 32.92 180.037 33.2C180.357 33.44 180.497 33.78 180.457 34.22C180.417 34.94 180.217 35.76 179.857 36.68C179.537 37.56 178.997 38.48 178.237 39.44C177.517 40.36 176.597 41.22 175.477 42.02C174.357 42.78 172.997 43.4 171.397 43.88C169.837 44.36 168.017 44.6 165.937 44.6ZM195.774 44.6C193.694 44.6 191.814 44.2 190.134 43.4C188.454 42.56 187.114 41.46 186.114 40.1C185.154 38.7 184.674 37.14 184.674 35.42C184.674 32.62 185.794 30.4 188.034 28.76C190.314 27.08 193.314 25.96 197.034 25.4L205.254 24.2V22.94C205.254 21.26 204.834 19.96 203.994 19.04C203.154 18.12 201.714 17.66 199.674 17.66C198.234 17.66 197.054 17.96 196.134 18.56C195.254 19.12 194.594 19.88 194.154 20.84C193.834 21.36 193.374 21.62 192.774 21.62H188.034C187.594 21.62 187.254 21.5 187.014 21.26C186.814 21.02 186.714 20.7 186.714 20.3C186.754 19.66 187.014 18.88 187.494 17.96C187.974 17.04 188.734 16.16 189.774 15.32C190.814 14.44 192.154 13.7 193.794 13.1C195.434 12.5 197.414 12.2 199.734 12.2C202.254 12.2 204.374 12.52 206.094 13.16C207.854 13.76 209.254 14.58 210.294 15.62C211.334 16.66 212.094 17.88 212.574 19.28C213.054 20.68 213.294 22.16 213.294 23.72V42.56C213.294 42.96 213.154 43.3 212.874 43.58C212.594 43.86 212.254 44 211.854 44H206.994C206.554 44 206.194 43.86 205.914 43.58C205.674 43.3 205.554 42.96 205.554 42.56V40.22C205.034 40.98 204.334 41.7 203.454 42.38C202.574 43.02 201.494 43.56 200.214 44C198.974 44.4 197.494 44.6 195.774 44.6ZM197.814 38.9C199.214 38.9 200.474 38.6 201.594 38C202.754 37.4 203.654 36.48 204.294 35.24C204.974 33.96 205.314 32.36 205.314 30.44V29.18L199.314 30.14C196.954 30.5 195.194 31.08 194.034 31.88C192.874 32.68 192.294 33.66 192.294 34.82C192.294 35.7 192.554 36.46 193.074 37.1C193.634 37.7 194.334 38.16 195.174 38.48C196.014 38.76 196.894 38.9 197.814 38.9ZM234.798 44C232.398 44 230.378 43.58 228.738 42.74C227.098 41.9 225.878 40.66 225.078 39.02C224.278 37.34 223.878 35.26 223.878 32.78V19.16H219.138C218.738 19.16 218.398 19.02 218.118 18.74C217.838 18.46 217.698 18.12 217.698 17.72V14.24C217.698 13.84 217.838 13.5 218.118 13.22C218.398 12.94 218.738 12.8 219.138 12.8H223.878V2.84C223.878 2.44 223.998 2.1 224.238 1.82C224.518 1.54 224.878 1.4 225.318 1.4H230.178C230.578 1.4 230.918 1.54 231.198 1.82C231.478 2.1 231.618 2.44 231.618 2.84V12.8H239.118C239.518 12.8 239.858 12.94 240.138 13.22C240.418 13.5 240.558 13.84 240.558 14.24V17.72C240.558 18.12 240.418 18.46 240.138 18.74C239.858 19.02 239.518 19.16 239.118 19.16H231.618V32.18C231.618 33.82 231.898 35.1 232.458 36.02C233.058 36.94 234.078 37.4 235.518 37.4H239.658C240.058 37.4 240.398 37.54 240.678 37.82C240.958 38.1 241.098 38.44 241.098 38.84V42.56C241.098 42.96 240.958 43.3 240.678 43.58C240.398 43.86 240.058 44 239.658 44H234.798ZM247.861 44C247.461 44 247.121 43.86 246.841 43.58C246.561 43.3 246.421 42.96 246.421 42.56V14.24C246.421 13.84 246.561 13.5 246.841 13.22C247.121 12.94 247.461 12.8 247.861 12.8H252.841C253.281 12.8 253.621 12.94 253.861 13.22C254.141 13.5 254.281 13.84 254.281 14.24V42.56C254.281 42.96 254.141 43.3 253.861 43.58C253.621 43.86 253.281 44 252.841 44H247.861ZM247.621 7.64C247.181 7.64 246.821 7.52 246.541 7.28C246.301 7 246.181 6.64 246.181 6.2V1.88C246.181 1.48 246.301 1.14 246.541 0.859998C246.821 0.579999 247.181 0.439999 247.621 0.439999H253.081C253.521 0.439999 253.881 0.579999 254.161 0.859998C254.441 1.14 254.581 1.48 254.581 1.88V6.2C254.581 6.64 254.441 7 254.161 7.28C253.881 7.52 253.521 7.64 253.081 7.64H247.621ZM276.217 44.6C273.017 44.6 270.317 44.04 268.117 42.92C265.957 41.8 264.297 40.22 263.137 38.18C262.017 36.14 261.377 33.76 261.217 31.04C261.177 30.32 261.157 29.44 261.157 28.4C261.157 27.36 261.177 26.48 261.217 25.76C261.377 23 262.037 20.62 263.197 18.62C264.397 16.58 266.077 15 268.237 13.88C270.437 12.76 273.097 12.2 276.217 12.2C279.337 12.2 281.977 12.76 284.137 13.88C286.337 15 288.017 16.58 289.177 18.62C290.377 20.62 291.057 23 291.217 25.76C291.257 26.48 291.277 27.36 291.277 28.4C291.277 29.44 291.257 30.32 291.217 31.04C291.057 33.76 290.397 36.14 289.237 38.18C288.117 40.22 286.457 41.8 284.257 42.92C282.097 44.04 279.417 44.6 276.217 44.6ZM276.217 38.66C278.337 38.66 279.977 38 281.137 36.68C282.297 35.32 282.937 33.34 283.057 30.74C283.097 30.14 283.117 29.36 283.117 28.4C283.117 27.44 283.097 26.66 283.057 26.06C282.937 23.5 282.297 21.54 281.137 20.18C279.977 18.82 278.337 18.14 276.217 18.14C274.097 18.14 272.457 18.82 271.297 20.18C270.137 21.54 269.497 23.5 269.377 26.06C269.337 26.66 269.317 27.44 269.317 28.4C269.317 29.36 269.337 30.14 269.377 30.74C269.497 33.34 270.137 35.32 271.297 36.68C272.457 38 274.097 38.66 276.217 38.66ZM299.365 44C298.965 44 298.625 43.86 298.345 43.58C298.065 43.3 297.925 42.96 297.925 42.56V14.24C297.925 13.84 298.065 13.5 298.345 13.22C298.625 12.94 298.965 12.8 299.365 12.8H304.285C304.685 12.8 305.025 12.94 305.305 13.22C305.585 13.5 305.725 13.84 305.725 14.24V16.7C306.765 15.42 308.085 14.36 309.685 13.52C311.325 12.64 313.345 12.2 315.745 12.2C318.185 12.2 320.305 12.76 322.105 13.88C323.905 14.96 325.285 16.5 326.245 18.5C327.245 20.5 327.745 22.9 327.745 25.7V42.56C327.745 42.96 327.605 43.3 327.325 43.58C327.045 43.86 326.705 44 326.305 44H321.025C320.625 44 320.285 43.86 320.005 43.58C319.725 43.3 319.585 42.96 319.585 42.56V26.06C319.585 23.74 319.005 21.92 317.845 20.6C316.725 19.28 315.085 18.62 312.925 18.62C310.845 18.62 309.185 19.28 307.945 20.6C306.705 21.92 306.085 23.74 306.085 26.06V42.56C306.085 42.96 305.945 43.3 305.665 43.58C305.385 43.86 305.045 44 304.645 44H299.365ZM6.12 116C5.72 116 5.38 115.86 5.1 115.58C4.82 115.3 4.68 114.96 4.68 114.56V75.5C4.68 75.06 4.82 74.7 5.1 74.42C5.38 74.14 5.72 74 6.12 74H20.76C24.8 74 28.12 74.62 30.72 75.86C33.36 77.1 35.34 78.94 36.66 81.38C38.02 83.82 38.72 86.8 38.76 90.32C38.84 92.08 38.88 93.64 38.88 95C38.88 96.36 38.84 97.9 38.76 99.62C38.68 103.34 38 106.42 36.72 108.86C35.44 111.26 33.5 113.06 30.9 114.26C28.34 115.42 25.06 116 21.06 116H6.12ZM13.02 109.1H20.76C23 109.1 24.82 108.78 26.22 108.14C27.62 107.5 28.64 106.48 29.28 105.08C29.96 103.64 30.32 101.76 30.36 99.44C30.4 98.24 30.42 97.2 30.42 96.32C30.46 95.4 30.46 94.5 30.42 93.62C30.42 92.7 30.4 91.66 30.36 90.5C30.28 87.22 29.46 84.8 27.9 83.24C26.34 81.68 23.86 80.9 20.46 80.9H13.02V109.1ZM59.5875 116.6C55.1475 116.6 51.6275 115.32 49.0275 112.76C46.4275 110.2 45.0275 106.56 44.8275 101.84C44.7875 101.44 44.7675 100.94 44.7675 100.34C44.7675 99.7 44.7875 99.2 44.8275 98.84C44.9875 95.84 45.6675 93.24 46.8675 91.04C48.1075 88.84 49.8075 87.16 51.9675 86C54.1275 84.8 56.6675 84.2 59.5875 84.2C62.8275 84.2 65.5475 84.88 67.7475 86.24C69.9475 87.56 71.6075 89.42 72.7275 91.82C73.8475 94.18 74.4075 96.92 74.4075 100.04V101.3C74.4075 101.7 74.2675 102.04 73.9875 102.32C73.7075 102.6 73.3475 102.74 72.9075 102.74H52.9875C52.9875 102.74 52.9875 102.8 52.9875 102.92C52.9875 103.04 52.9875 103.14 52.9875 103.22C53.0275 104.62 53.2875 105.92 53.7675 107.12C54.2875 108.28 55.0275 109.22 55.9875 109.94C56.9875 110.66 58.1675 111.02 59.5275 111.02C60.6475 111.02 61.5875 110.86 62.3475 110.54C63.1075 110.18 63.7275 109.78 64.2075 109.34C64.6875 108.9 65.0275 108.54 65.2275 108.26C65.5875 107.78 65.8675 107.5 66.0675 107.42C66.3075 107.3 66.6475 107.24 67.0875 107.24H72.2475C72.6475 107.24 72.9675 107.36 73.2075 107.6C73.4875 107.84 73.6075 108.14 73.5675 108.5C73.5275 109.14 73.1875 109.92 72.5475 110.84C71.9475 111.76 71.0675 112.66 69.9075 113.54C68.7475 114.42 67.2875 115.16 65.5275 115.76C63.8075 116.32 61.8275 116.6 59.5875 116.6ZM52.9875 97.7H66.2475V97.52C66.2475 95.96 65.9875 94.6 65.4675 93.44C64.9475 92.28 64.1875 91.36 63.1875 90.68C62.1875 90 60.9875 89.66 59.5875 89.66C58.1875 89.66 56.9875 90 55.9875 90.68C54.9875 91.36 54.2275 92.28 53.7075 93.44C53.2275 94.6 52.9875 95.96 52.9875 97.52V97.7ZM90.7031 116C90.0631 116 89.5831 115.86 89.2631 115.58C88.9831 115.26 88.7431 114.9 88.5431 114.5L77.3231 86.66C77.2431 86.46 77.2031 86.28 77.2031 86.12C77.2031 85.76 77.3231 85.46 77.5631 85.22C77.8431 84.94 78.1631 84.8 78.5231 84.8H83.3831C83.8631 84.8 84.2231 84.94 84.4631 85.22C84.7031 85.46 84.8631 85.7 84.9431 85.94L92.9231 107L100.903 85.94C100.983 85.7 101.143 85.46 101.383 85.22C101.623 84.94 101.983 84.8 102.463 84.8H107.383C107.703 84.8 107.983 84.94 108.223 85.22C108.503 85.46 108.643 85.76 108.643 86.12C108.643 86.28 108.623 86.46 108.583 86.66L97.3031 114.5C97.1431 114.9 96.9031 115.26 96.5831 115.58C96.2631 115.86 95.7831 116 95.1431 116H90.7031ZM126.443 116.6C122.003 116.6 118.483 115.32 115.883 112.76C113.283 110.2 111.883 106.56 111.683 101.84C111.643 101.44 111.623 100.94 111.623 100.34C111.623 99.7 111.643 99.2 111.683 98.84C111.843 95.84 112.523 93.24 113.723 91.04C114.963 88.84 116.663 87.16 118.823 86C120.983 84.8 123.523 84.2 126.443 84.2C129.683 84.2 132.403 84.88 134.603 86.24C136.803 87.56 138.463 89.42 139.583 91.82C140.703 94.18 141.263 96.92 141.263 100.04V101.3C141.263 101.7 141.123 102.04 140.843 102.32C140.563 102.6 140.203 102.74 139.763 102.74H119.843C119.843 102.74 119.843 102.8 119.843 102.92C119.843 103.04 119.843 103.14 119.843 103.22C119.883 104.62 120.143 105.92 120.623 107.12C121.143 108.28 121.883 109.22 122.843 109.94C123.843 110.66 125.023 111.02 126.383 111.02C127.503 111.02 128.443 110.86 129.203 110.54C129.963 110.18 130.583 109.78 131.063 109.34C131.543 108.9 131.883 108.54 132.083 108.26C132.443 107.78 132.723 107.5 132.923 107.42C133.163 107.3 133.503 107.24 133.943 107.24H139.103C139.503 107.24 139.823 107.36 140.063 107.6C140.343 107.84 140.463 108.14 140.423 108.5C140.383 109.14 140.043 109.92 139.403 110.84C138.803 111.76 137.923 112.66 136.763 113.54C135.603 114.42 134.143 115.16 132.383 115.76C130.663 116.32 128.683 116.6 126.443 116.6ZM119.843 97.7H133.103V97.52C133.103 95.96 132.843 94.6 132.323 93.44C131.803 92.28 131.043 91.36 130.043 90.68C129.043 90 127.843 89.66 126.443 89.66C125.043 89.66 123.843 90 122.843 90.68C121.843 91.36 121.083 92.28 120.563 93.44C120.083 94.6 119.843 95.96 119.843 97.52V97.7ZM149.132 116C148.732 116 148.392 115.86 148.112 115.58C147.832 115.3 147.692 114.96 147.692 114.56V74.84C147.692 74.44 147.832 74.1 148.112 73.82C148.392 73.54 148.732 73.4 149.132 73.4H154.112C154.512 73.4 154.852 73.54 155.132 73.82C155.412 74.1 155.552 74.44 155.552 74.84V114.56C155.552 114.96 155.412 115.3 155.132 115.58C154.852 115.86 154.512 116 154.112 116H149.132ZM177.311 116.6C174.111 116.6 171.411 116.04 169.211 114.92C167.051 113.8 165.391 112.22 164.231 110.18C163.111 108.14 162.471 105.76 162.311 103.04C162.271 102.32 162.251 101.44 162.251 100.4C162.251 99.36 162.271 98.48 162.311 97.76C162.471 95 163.131 92.62 164.291 90.62C165.491 88.58 167.171 87 169.331 85.88C171.531 84.76 174.191 84.2 177.311 84.2C180.431 84.2 183.071 84.76 185.231 85.88C187.431 87 189.111 88.58 190.271 90.62C191.471 92.62 192.151 95 192.311 97.76C192.351 98.48 192.371 99.36 192.371 100.4C192.371 101.44 192.351 102.32 192.311 103.04C192.151 105.76 191.491 108.14 190.331 110.18C189.211 112.22 187.551 113.8 185.351 114.92C183.191 116.04 180.511 116.6 177.311 116.6ZM177.311 110.66C179.431 110.66 181.071 110 182.231 108.68C183.391 107.32 184.031 105.34 184.151 102.74C184.191 102.14 184.211 101.36 184.211 100.4C184.211 99.44 184.191 98.66 184.151 98.06C184.031 95.5 183.391 93.54 182.231 92.18C181.071 90.82 179.431 90.14 177.311 90.14C175.191 90.14 173.551 90.82 172.391 92.18C171.231 93.54 170.591 95.5 170.471 98.06C170.431 98.66 170.411 99.44 170.411 100.4C170.411 101.36 170.431 102.14 170.471 102.74C170.591 105.34 171.231 107.32 172.391 108.68C173.551 110 175.191 110.66 177.311 110.66ZM200.519 127.4C200.119 127.4 199.779 127.26 199.499 126.98C199.219 126.7 199.079 126.36 199.079 125.96V86.24C199.079 85.84 199.219 85.5 199.499 85.22C199.779 84.94 200.119 84.8 200.519 84.8H205.259C205.699 84.8 206.039 84.94 206.279 85.22C206.559 85.5 206.699 85.84 206.699 86.24V88.64C207.659 87.36 208.919 86.3 210.479 85.46C212.039 84.62 213.979 84.2 216.299 84.2C218.419 84.2 220.259 84.54 221.819 85.22C223.379 85.9 224.679 86.88 225.719 88.16C226.759 89.4 227.559 90.88 228.119 92.6C228.679 94.32 228.999 96.22 229.079 98.3C229.119 98.98 229.139 99.68 229.139 100.4C229.139 101.12 229.119 101.84 229.079 102.56C229.039 104.56 228.739 106.42 228.179 108.14C227.619 109.82 226.799 111.3 225.719 112.58C224.679 113.82 223.379 114.8 221.819 115.52C220.259 116.24 218.419 116.6 216.299 116.6C214.139 116.6 212.299 116.22 210.779 115.46C209.259 114.66 208.019 113.62 207.059 112.34V125.96C207.059 126.36 206.919 126.7 206.639 126.98C206.399 127.26 206.059 127.4 205.619 127.4H200.519ZM214.079 110.18C215.799 110.18 217.139 109.82 218.099 109.1C219.059 108.34 219.739 107.36 220.139 106.16C220.579 104.96 220.839 103.64 220.919 102.2C220.999 101 220.999 99.8 220.919 98.6C220.839 97.16 220.579 95.84 220.139 94.64C219.739 93.44 219.059 92.48 218.099 91.76C217.139 91 215.799 90.62 214.079 90.62C212.439 90.62 211.099 91 210.059 91.76C209.059 92.52 208.319 93.5 207.839 94.7C207.399 95.86 207.139 97.06 207.059 98.3C207.019 99.02 206.999 99.78 206.999 100.58C206.999 101.38 207.019 102.16 207.059 102.92C207.099 104.12 207.379 105.28 207.899 106.4C208.419 107.48 209.179 108.38 210.179 109.1C211.179 109.82 212.479 110.18 214.079 110.18ZM237.314 116C236.914 116 236.574 115.86 236.294 115.58C236.014 115.3 235.874 114.96 235.874 114.56V86.24C235.874 85.84 236.014 85.5 236.294 85.22C236.574 84.94 236.914 84.8 237.314 84.8H241.994C242.394 84.8 242.734 84.94 243.014 85.22C243.294 85.5 243.434 85.84 243.434 86.24V88.28C244.274 87.16 245.394 86.22 246.794 85.46C248.234 84.66 249.934 84.24 251.894 84.2C256.454 84.12 259.634 85.9 261.434 89.54C262.354 87.94 263.674 86.66 265.394 85.7C267.154 84.7 269.094 84.2 271.214 84.2C273.294 84.2 275.174 84.68 276.854 85.64C278.574 86.6 279.914 88.06 280.874 90.02C281.874 91.94 282.374 94.38 282.374 97.34V114.56C282.374 114.96 282.234 115.3 281.954 115.58C281.674 115.86 281.334 116 280.934 116H276.014C275.614 116 275.274 115.86 274.994 115.58C274.714 115.3 274.574 114.96 274.574 114.56V97.82C274.574 96.02 274.314 94.6 273.794 93.56C273.274 92.48 272.574 91.72 271.694 91.28C270.814 90.84 269.834 90.62 268.754 90.62C267.874 90.62 266.994 90.84 266.114 91.28C265.234 91.72 264.514 92.48 263.954 93.56C263.394 94.6 263.114 96.02 263.114 97.82V114.56C263.114 114.96 262.974 115.3 262.694 115.58C262.414 115.86 262.074 116 261.674 116H256.754C256.314 116 255.954 115.86 255.674 115.58C255.434 115.3 255.314 114.96 255.314 114.56V97.82C255.314 96.02 255.034 94.6 254.474 93.56C253.914 92.48 253.194 91.72 252.314 91.28C251.434 90.84 250.494 90.62 249.494 90.62C248.574 90.62 247.674 90.86 246.794 91.34C245.914 91.78 245.194 92.52 244.634 93.56C244.074 94.6 243.794 96.02 243.794 97.82V114.56C243.794 114.96 243.654 115.3 243.374 115.58C243.094 115.86 242.754 116 242.354 116H237.314ZM303.455 116.6C299.015 116.6 295.495 115.32 292.895 112.76C290.295 110.2 288.895 106.56 288.695 101.84C288.655 101.44 288.635 100.94 288.635 100.34C288.635 99.7 288.655 99.2 288.695 98.84C288.855 95.84 289.535 93.24 290.735 91.04C291.975 88.84 293.675 87.16 295.835 86C297.995 84.8 300.535 84.2 303.455 84.2C306.695 84.2 309.415 84.88 311.615 86.24C313.815 87.56 315.475 89.42 316.595 91.82C317.715 94.18 318.275 96.92 318.275 100.04V101.3C318.275 101.7 318.135 102.04 317.855 102.32C317.575 102.6 317.215 102.74 316.775 102.74H296.855C296.855 102.74 296.855 102.8 296.855 102.92C296.855 103.04 296.855 103.14 296.855 103.22C296.895 104.62 297.155 105.92 297.635 107.12C298.155 108.28 298.895 109.22 299.855 109.94C300.855 110.66 302.035 111.02 303.395 111.02C304.515 111.02 305.455 110.86 306.215 110.54C306.975 110.18 307.595 109.78 308.075 109.34C308.555 108.9 308.895 108.54 309.095 108.26C309.455 107.78 309.735 107.5 309.935 107.42C310.175 107.3 310.515 107.24 310.955 107.24H316.115C316.515 107.24 316.835 107.36 317.075 107.6C317.355 107.84 317.475 108.14 317.435 108.5C317.395 109.14 317.055 109.92 316.415 110.84C315.815 111.76 314.935 112.66 313.775 113.54C312.615 114.42 311.155 115.16 309.395 115.76C307.675 116.32 305.695 116.6 303.455 116.6ZM296.855 97.7H310.115V97.52C310.115 95.96 309.855 94.6 309.335 93.44C308.815 92.28 308.055 91.36 307.055 90.68C306.055 90 304.855 89.66 303.455 89.66C302.055 89.66 300.855 90 299.855 90.68C298.855 91.36 298.095 92.28 297.575 93.44C297.095 94.6 296.855 95.96 296.855 97.52V97.7ZM326.084 116C325.684 116 325.344 115.86 325.064 115.58C324.784 115.3 324.644 114.96 324.644 114.56V86.24C324.644 85.84 324.784 85.5 325.064 85.22C325.344 84.94 325.684 84.8 326.084 84.8H331.004C331.404 84.8 331.744 84.94 332.024 85.22C332.304 85.5 332.444 85.84 332.444 86.24V88.7C333.484 87.42 334.804 86.36 336.404 85.52C338.044 84.64 340.064 84.2 342.464 84.2C344.904 84.2 347.024 84.76 348.824 85.88C350.624 86.96 352.004 88.5 352.964 90.5C353.964 92.5 354.464 94.9 354.464 97.7V114.56C354.464 114.96 354.324 115.3 354.044 115.58C353.764 115.86 353.424 116 353.024 116H347.744C347.344 116 347.004 115.86 346.724 115.58C346.444 115.3 346.304 114.96 346.304 114.56V98.06C346.304 95.74 345.724 93.92 344.564 92.6C343.444 91.28 341.804 90.62 339.644 90.62C337.564 90.62 335.904 91.28 334.664 92.6C333.424 93.92 332.804 95.74 332.804 98.06V114.56C332.804 114.96 332.664 115.3 332.384 115.58C332.104 115.86 331.764 116 331.364 116H326.084ZM375.833 116C373.433 116 371.413 115.58 369.773 114.74C368.133 113.9 366.913 112.66 366.113 111.02C365.313 109.34 364.913 107.26 364.913 104.78V91.16H360.173C359.773 91.16 359.433 91.02 359.153 90.74C358.873 90.46 358.733 90.12 358.733 89.72V86.24C358.733 85.84 358.873 85.5 359.153 85.22C359.433 84.94 359.773 84.8 360.173 84.8H364.913V74.84C364.913 74.44 365.033 74.1 365.273 73.82C365.553 73.54 365.913 73.4 366.353 73.4H371.213C371.613 73.4 371.953 73.54 372.233 73.82C372.513 74.1 372.653 74.44 372.653 74.84V84.8H380.153C380.553 84.8 380.893 84.94 381.173 85.22C381.453 85.5 381.593 85.84 381.593 86.24V89.72C381.593 90.12 381.453 90.46 381.173 90.74C380.893 91.02 380.553 91.16 380.153 91.16H372.653V104.18C372.653 105.82 372.933 107.1 373.493 108.02C374.093 108.94 375.113 109.4 376.553 109.4H380.693C381.093 109.4 381.433 109.54 381.713 109.82C381.993 110.1 382.133 110.44 382.133 110.84V114.56C382.133 114.96 381.993 115.3 381.713 115.58C381.433 115.86 381.093 116 380.693 116H375.833ZM415.987 125.54C413.347 125.54 411.027 125 409.027 123.92C407.027 122.84 405.367 121.16 404.047 118.88C402.767 116.64 401.807 113.74 401.167 110.18C400.527 106.62 400.207 102.38 400.207 97.46C400.207 92.5 400.527 88.26 401.167 84.74C401.807 81.18 402.767 78.28 404.047 76.04C405.367 73.76 407.027 72.1 409.027 71.06C411.027 69.98 413.347 69.44 415.987 69.44C416.387 69.44 416.727 69.58 417.007 69.86C417.287 70.14 417.427 70.48 417.427 70.88V74.48C417.427 74.88 417.287 75.22 417.007 75.5C416.767 75.78 416.467 75.92 416.107 75.92C414.467 76 413.087 76.48 411.967 77.36C410.847 78.2 409.947 79.5 409.267 81.26C408.627 82.98 408.167 85.18 407.887 87.86C407.607 90.54 407.467 93.74 407.467 97.46C407.467 101.18 407.607 104.38 407.887 107.06C408.167 109.74 408.627 111.96 409.267 113.72C409.947 115.48 410.847 116.78 411.967 117.62C413.087 118.5 414.467 118.98 416.107 119.06C416.467 119.06 416.767 119.2 417.007 119.48C417.287 119.76 417.427 120.1 417.427 120.5V124.1C417.427 124.5 417.287 124.84 417.007 125.12C416.727 125.4 416.387 125.54 415.987 125.54ZM426.045 116C425.645 116 425.305 115.86 425.025 115.58C424.745 115.3 424.605 114.96 424.605 114.56V86.24C424.605 85.84 424.745 85.5 425.025 85.22C425.305 84.94 425.645 84.8 426.045 84.8H431.025C431.465 84.8 431.805 84.94 432.045 85.22C432.325 85.5 432.465 85.84 432.465 86.24V114.56C432.465 114.96 432.325 115.3 432.045 115.58C431.805 115.86 431.465 116 431.025 116H426.045ZM425.805 79.64C425.365 79.64 425.005 79.52 424.725 79.28C424.485 79 424.365 78.64 424.365 78.2V73.88C424.365 73.48 424.485 73.14 424.725 72.86C425.005 72.58 425.365 72.44 425.805 72.44H431.265C431.705 72.44 432.065 72.58 432.345 72.86C432.625 73.14 432.765 73.48 432.765 73.88V78.2C432.765 78.64 432.625 79 432.345 79.28C432.065 79.52 431.705 79.64 431.265 79.64H425.805ZM457.285 116.6C453.725 116.6 450.665 116.02 448.105 114.86C445.545 113.66 443.545 111.84 442.105 109.4C440.665 106.92 439.885 103.84 439.765 100.16C439.725 98.44 439.705 96.74 439.705 95.06C439.705 93.38 439.725 91.66 439.765 89.9C439.885 86.26 440.685 83.22 442.165 80.78C443.645 78.34 445.665 76.5 448.225 75.26C450.825 74.02 453.845 73.4 457.285 73.4C460.725 73.4 463.745 74.02 466.345 75.26C468.945 76.5 470.985 78.34 472.465 80.78C473.945 83.22 474.745 86.26 474.865 89.9C474.945 91.66 474.985 93.38 474.985 95.06C474.985 96.74 474.945 98.44 474.865 100.16C474.745 103.84 473.965 106.92 472.525 109.4C471.085 111.84 469.065 113.66 466.465 114.86C463.905 116.02 460.845 116.6 457.285 116.6ZM457.285 109.7C459.885 109.7 462.005 108.94 463.645 107.42C465.285 105.86 466.165 103.34 466.285 99.86C466.365 98.1 466.405 96.48 466.405 95C466.405 93.48 466.365 91.86 466.285 90.14C466.205 87.82 465.765 85.94 464.965 84.5C464.205 83.02 463.165 81.96 461.845 81.32C460.525 80.64 459.005 80.3 457.285 80.3C455.605 80.3 454.105 80.64 452.785 81.32C451.465 81.96 450.405 83.02 449.605 84.5C448.845 85.94 448.425 87.82 448.345 90.14C448.305 91.86 448.285 93.48 448.285 95C448.285 96.48 448.305 98.1 448.345 99.86C448.465 103.34 449.345 105.86 450.985 107.42C452.625 108.94 454.725 109.7 457.285 109.7ZM497.444 116.6C493.724 116.6 490.604 116.06 488.084 114.98C485.604 113.86 483.704 112.42 482.384 110.66C481.104 108.86 480.424 106.98 480.344 105.02C480.344 104.66 480.464 104.36 480.704 104.12C480.944 103.88 481.244 103.76 481.604 103.76H486.944C487.464 103.76 487.844 103.88 488.084 104.12C488.364 104.32 488.604 104.58 488.804 104.9C489.044 105.66 489.504 106.42 490.184 107.18C490.864 107.9 491.784 108.5 492.944 108.98C494.144 109.46 495.644 109.7 497.444 109.7C500.324 109.7 502.464 109.22 503.864 108.26C505.304 107.3 506.024 106 506.024 104.36C506.024 103.2 505.644 102.28 504.884 101.6C504.124 100.88 502.944 100.24 501.344 99.68C499.784 99.08 497.704 98.46 495.104 97.82C492.104 97.1 489.584 96.24 487.544 95.24C485.544 94.2 484.024 92.9 482.984 91.34C481.984 89.78 481.484 87.8 481.484 85.4C481.484 83.08 482.104 81.02 483.344 79.22C484.624 77.42 486.424 76 488.744 74.96C491.104 73.92 493.904 73.4 497.144 73.4C499.744 73.4 502.044 73.76 504.044 74.48C506.044 75.16 507.704 76.08 509.024 77.24C510.344 78.36 511.344 79.58 512.024 80.9C512.744 82.18 513.124 83.44 513.164 84.68C513.164 85 513.044 85.3 512.804 85.58C512.604 85.82 512.304 85.94 511.904 85.94H506.324C506.004 85.94 505.684 85.86 505.364 85.7C505.044 85.54 504.784 85.24 504.584 84.8C504.344 83.56 503.564 82.5 502.244 81.62C500.924 80.74 499.224 80.3 497.144 80.3C494.984 80.3 493.244 80.7 491.924 81.5C490.604 82.3 489.944 83.54 489.944 85.22C489.944 86.34 490.264 87.28 490.904 88.04C491.584 88.76 492.644 89.4 494.084 89.96C495.564 90.52 497.504 91.12 499.904 91.76C503.304 92.52 506.084 93.4 508.244 94.4C510.404 95.4 511.984 96.68 512.984 98.24C513.984 99.76 514.484 101.7 514.484 104.06C514.484 106.7 513.764 108.96 512.324 110.84C510.924 112.68 508.944 114.1 506.384 115.1C503.824 116.1 500.844 116.6 497.444 116.6ZM13.02 188.6C10.94 188.6 9.06 188.2 7.38 187.4C5.7 186.56 4.36 185.46 3.36 184.1C2.4 182.7 1.92 181.14 1.92 179.42C1.92 176.62 3.04 174.4 5.28 172.76C7.56 171.08 10.56 169.96 14.28 169.4L22.5 168.2V166.94C22.5 165.26 22.08 163.96 21.24 163.04C20.4 162.12 18.96 161.66 16.92 161.66C15.48 161.66 14.3 161.96 13.38 162.56C12.5 163.12 11.84 163.88 11.4 164.84C11.08 165.36 10.62 165.62 10.02 165.62H5.28C4.84 165.62 4.5 165.5 4.26 165.26C4.06 165.02 3.96 164.7 3.96 164.3C4 163.66 4.26 162.88 4.74 161.96C5.22 161.04 5.98 160.16 7.02 159.32C8.06 158.44 9.4 157.7 11.04 157.1C12.68 156.5 14.66 156.2 16.98 156.2C19.5 156.2 21.62 156.52 23.34 157.16C25.1 157.76 26.5 158.58 27.54 159.62C28.58 160.66 29.34 161.88 29.82 163.28C30.3 164.68 30.54 166.16 30.54 167.72V186.56C30.54 186.96 30.4 187.3 30.12 187.58C29.84 187.86 29.5 188 29.1 188H24.24C23.8 188 23.44 187.86 23.16 187.58C22.92 187.3 22.8 186.96 22.8 186.56V184.22C22.28 184.98 21.58 185.7 20.7 186.38C19.82 187.02 18.74 187.56 17.46 188C16.22 188.4 14.74 188.6 13.02 188.6ZM15.06 182.9C16.46 182.9 17.72 182.6 18.84 182C20 181.4 20.9 180.48 21.54 179.24C22.22 177.96 22.56 176.36 22.56 174.44V173.18L16.56 174.14C14.2 174.5 12.44 175.08 11.28 175.88C10.12 176.68 9.54 177.66 9.54 178.82C9.54 179.7 9.8 180.46 10.32 181.1C10.88 181.7 11.58 182.16 12.42 182.48C13.26 182.76 14.14 182.9 15.06 182.9ZM39.6773 188C39.2773 188 38.9373 187.86 38.6573 187.58C38.3773 187.3 38.2373 186.96 38.2373 186.56V158.24C38.2373 157.84 38.3773 157.5 38.6573 157.22C38.9373 156.94 39.2773 156.8 39.6773 156.8H44.5973C44.9973 156.8 45.3373 156.94 45.6173 157.22C45.8973 157.5 46.0373 157.84 46.0373 158.24V160.7C47.0773 159.42 48.3973 158.36 49.9973 157.52C51.6373 156.64 53.6573 156.2 56.0573 156.2C58.4973 156.2 60.6173 156.76 62.4173 157.88C64.2173 158.96 65.5973 160.5 66.5573 162.5C67.5573 164.5 68.0573 166.9 68.0573 169.7V186.56C68.0573 186.96 67.9173 187.3 67.6373 187.58C67.3573 187.86 67.0173 188 66.6173 188H61.3373C60.9373 188 60.5973 187.86 60.3173 187.58C60.0373 187.3 59.8973 186.96 59.8973 186.56V170.06C59.8973 167.74 59.3173 165.92 58.1573 164.6C57.0373 163.28 55.3973 162.62 53.2373 162.62C51.1573 162.62 49.4973 163.28 48.2573 164.6C47.0173 165.92 46.3973 167.74 46.3973 170.06V186.56C46.3973 186.96 46.2573 187.3 45.9773 187.58C45.6973 187.86 45.3573 188 44.9573 188H39.6773ZM87.2588 188.6C85.1788 188.6 83.3388 188.26 81.7388 187.58C80.1788 186.86 78.8788 185.86 77.8388 184.58C76.7988 183.3 75.9988 181.8 75.4388 180.08C74.8788 178.32 74.5588 176.4 74.4788 174.32C74.4388 173.6 74.4188 172.96 74.4188 172.4C74.4188 171.8 74.4388 171.14 74.4788 170.42C74.5588 168.42 74.8588 166.56 75.3788 164.84C75.9388 163.12 76.7388 161.62 77.7788 160.34C78.8588 159.02 80.1788 158 81.7388 157.28C83.3388 156.56 85.1788 156.2 87.2588 156.2C89.4188 156.2 91.2388 156.58 92.7188 157.34C94.2388 158.06 95.4988 159 96.4988 160.16V146.84C96.4988 146.44 96.6188 146.1 96.8588 145.82C97.1388 145.54 97.4988 145.4 97.9388 145.4H103.039C103.439 145.4 103.779 145.54 104.059 145.82C104.339 146.1 104.479 146.44 104.479 146.84V186.56C104.479 186.96 104.339 187.3 104.059 187.58C103.779 187.86 103.439 188 103.039 188H98.2988C97.8588 188 97.4988 187.86 97.2188 187.58C96.9788 187.3 96.8588 186.96 96.8588 186.56V184.34C95.8588 185.58 94.5788 186.6 93.0188 187.4C91.4988 188.2 89.5788 188.6 87.2588 188.6ZM89.4788 182.18C91.1588 182.18 92.4988 181.8 93.4988 181.04C94.4988 180.28 95.2388 179.32 95.7188 178.16C96.1988 176.96 96.4588 175.74 96.4988 174.5C96.5388 173.78 96.5588 173.02 96.5588 172.22C96.5588 171.38 96.5388 170.6 96.4988 169.88C96.4588 168.68 96.1788 167.54 95.6588 166.46C95.1388 165.34 94.3788 164.42 93.3788 163.7C92.3788 162.98 91.0788 162.62 89.4788 162.62C87.7988 162.62 86.4588 163 85.4588 163.76C84.4988 164.48 83.7988 165.44 83.3588 166.64C82.9188 167.84 82.6588 169.16 82.5788 170.6C82.5388 171.8 82.5388 173 82.5788 174.2C82.6588 175.64 82.9188 176.96 83.3588 178.16C83.7988 179.36 84.4988 180.34 85.4588 181.1C86.4588 181.82 87.7988 182.18 89.4788 182.18ZM122.745 188C122.425 188 122.125 187.88 121.845 187.64C121.605 187.4 121.485 187.1 121.485 186.74C121.485 186.58 121.525 186.4 121.605 186.2L136.065 147.5C136.185 147.1 136.405 146.76 136.725 146.48C137.085 146.16 137.565 146 138.165 146H144.705C145.305 146 145.765 146.16 146.085 146.48C146.405 146.76 146.645 147.1 146.805 147.5L161.265 186.2C161.305 186.4 161.325 186.58 161.325 186.74C161.325 187.1 161.205 187.4 160.965 187.64C160.725 187.88 160.445 188 160.125 188H154.905C154.345 188 153.925 187.88 153.645 187.64C153.405 187.36 153.245 187.1 153.165 186.86L150.345 179.54H132.525L129.705 186.86C129.625 187.1 129.445 187.36 129.165 187.64C128.925 187.88 128.525 188 127.965 188H122.745ZM134.625 172.64H148.245L141.405 154.1L134.625 172.64ZM167.646 188C167.246 188 166.906 187.86 166.626 187.58C166.346 187.3 166.206 186.96 166.206 186.56V158.24C166.206 157.84 166.346 157.5 166.626 157.22C166.906 156.94 167.246 156.8 167.646 156.8H172.566C172.966 156.8 173.306 156.94 173.586 157.22C173.866 157.5 174.006 157.84 174.006 158.24V160.7C175.046 159.42 176.366 158.36 177.966 157.52C179.606 156.64 181.626 156.2 184.026 156.2C186.466 156.2 188.586 156.76 190.386 157.88C192.186 158.96 193.566 160.5 194.526 162.5C195.526 164.5 196.026 166.9 196.026 169.7V186.56C196.026 186.96 195.886 187.3 195.606 187.58C195.326 187.86 194.986 188 194.586 188H189.306C188.906 188 188.566 187.86 188.286 187.58C188.006 187.3 187.866 186.96 187.866 186.56V170.06C187.866 167.74 187.286 165.92 186.126 164.6C185.006 163.28 183.366 162.62 181.206 162.62C179.126 162.62 177.466 163.28 176.226 164.6C174.986 165.92 174.366 167.74 174.366 170.06V186.56C174.366 186.96 174.226 187.3 173.946 187.58C173.666 187.86 173.326 188 172.926 188H167.646ZM215.228 188.6C213.148 188.6 211.308 188.26 209.708 187.58C208.148 186.86 206.848 185.86 205.808 184.58C204.768 183.3 203.968 181.8 203.408 180.08C202.848 178.32 202.528 176.4 202.448 174.32C202.408 173.6 202.388 172.96 202.388 172.4C202.388 171.8 202.408 171.14 202.448 170.42C202.528 168.42 202.828 166.56 203.348 164.84C203.908 163.12 204.708 161.62 205.748 160.34C206.828 159.02 208.148 158 209.708 157.28C211.308 156.56 213.148 156.2 215.228 156.2C217.388 156.2 219.208 156.58 220.688 157.34C222.208 158.06 223.468 159 224.468 160.16V146.84C224.468 146.44 224.588 146.1 224.828 145.82C225.108 145.54 225.468 145.4 225.908 145.4H231.008C231.408 145.4 231.748 145.54 232.028 145.82C232.308 146.1 232.448 146.44 232.448 146.84V186.56C232.448 186.96 232.308 187.3 232.028 187.58C231.748 187.86 231.408 188 231.008 188H226.268C225.828 188 225.468 187.86 225.188 187.58C224.948 187.3 224.828 186.96 224.828 186.56V184.34C223.828 185.58 222.548 186.6 220.988 187.4C219.468 188.2 217.548 188.6 215.228 188.6ZM217.448 182.18C219.128 182.18 220.468 181.8 221.468 181.04C222.468 180.28 223.208 179.32 223.688 178.16C224.168 176.96 224.428 175.74 224.468 174.5C224.508 173.78 224.528 173.02 224.528 172.22C224.528 171.38 224.508 170.6 224.468 169.88C224.428 168.68 224.148 167.54 223.628 166.46C223.108 165.34 222.348 164.42 221.348 163.7C220.348 162.98 219.048 162.62 217.448 162.62C215.768 162.62 214.428 163 213.428 163.76C212.468 164.48 211.768 165.44 211.328 166.64C210.888 167.84 210.628 169.16 210.548 170.6C210.508 171.8 210.508 173 210.548 174.2C210.628 175.64 210.888 176.96 211.328 178.16C211.768 179.36 212.468 180.34 213.428 181.1C214.428 181.82 215.768 182.18 217.448 182.18ZM241.884 188C241.484 188 241.144 187.86 240.864 187.58C240.584 187.3 240.444 186.96 240.444 186.56V158.3C240.444 157.86 240.584 157.5 240.864 157.22C241.144 156.94 241.484 156.8 241.884 156.8H246.744C247.144 156.8 247.484 156.94 247.764 157.22C248.084 157.5 248.244 157.86 248.244 158.3V160.76C249.164 159.48 250.344 158.5 251.784 157.82C253.264 157.14 254.964 156.8 256.884 156.8H259.344C259.784 156.8 260.124 156.94 260.364 157.22C260.644 157.5 260.784 157.84 260.784 158.24V162.56C260.784 162.96 260.644 163.3 260.364 163.58C260.124 163.86 259.784 164 259.344 164H254.664C252.744 164 251.244 164.54 250.164 165.62C249.124 166.7 248.604 168.18 248.604 170.06V186.56C248.604 186.96 248.464 187.3 248.184 187.58C247.904 187.86 247.544 188 247.104 188H241.884ZM278.854 188.6C275.654 188.6 272.954 188.04 270.754 186.92C268.594 185.8 266.934 184.22 265.774 182.18C264.654 180.14 264.014 177.76 263.854 175.04C263.814 174.32 263.794 173.44 263.794 172.4C263.794 171.36 263.814 170.48 263.854 169.76C264.014 167 264.674 164.62 265.834 162.62C267.034 160.58 268.714 159 270.874 157.88C273.074 156.76 275.734 156.2 278.854 156.2C281.974 156.2 284.614 156.76 286.774 157.88C288.974 159 290.654 160.58 291.814 162.62C293.014 164.62 293.694 167 293.854 169.76C293.894 170.48 293.914 171.36 293.914 172.4C293.914 173.44 293.894 174.32 293.854 175.04C293.694 177.76 293.034 180.14 291.874 182.18C290.754 184.22 289.094 185.8 286.894 186.92C284.734 188.04 282.054 188.6 278.854 188.6ZM278.854 182.66C280.974 182.66 282.614 182 283.774 180.68C284.934 179.32 285.574 177.34 285.694 174.74C285.734 174.14 285.754 173.36 285.754 172.4C285.754 171.44 285.734 170.66 285.694 170.06C285.574 167.5 284.934 165.54 283.774 164.18C282.614 162.82 280.974 162.14 278.854 162.14C276.734 162.14 275.094 162.82 273.934 164.18C272.774 165.54 272.134 167.5 272.014 170.06C271.974 170.66 271.954 171.44 271.954 172.4C271.954 173.36 271.974 174.14 272.014 174.74C272.134 177.34 272.774 179.32 273.934 180.68C275.094 182 276.734 182.66 278.854 182.66ZM302.002 188C301.602 188 301.262 187.86 300.982 187.58C300.702 187.3 300.562 186.96 300.562 186.56V158.24C300.562 157.84 300.702 157.5 300.982 157.22C301.262 156.94 301.602 156.8 302.002 156.8H306.982C307.422 156.8 307.762 156.94 308.002 157.22C308.282 157.5 308.422 157.84 308.422 158.24V186.56C308.422 186.96 308.282 187.3 308.002 187.58C307.762 187.86 307.422 188 306.982 188H302.002ZM301.762 151.64C301.322 151.64 300.962 151.52 300.682 151.28C300.442 151 300.322 150.64 300.322 150.2V145.88C300.322 145.48 300.442 145.14 300.682 144.86C300.962 144.58 301.322 144.44 301.762 144.44H307.222C307.662 144.44 308.022 144.58 308.302 144.86C308.582 145.14 308.722 145.48 308.722 145.88V150.2C308.722 150.64 308.582 151 308.302 151.28C308.022 151.52 307.662 151.64 307.222 151.64H301.762ZM327.962 188.6C325.882 188.6 324.042 188.26 322.442 187.58C320.882 186.86 319.582 185.86 318.542 184.58C317.502 183.3 316.702 181.8 316.142 180.08C315.582 178.32 315.262 176.4 315.182 174.32C315.142 173.6 315.122 172.96 315.122 172.4C315.122 171.8 315.142 171.14 315.182 170.42C315.262 168.42 315.562 166.56 316.082 164.84C316.642 163.12 317.442 161.62 318.482 160.34C319.562 159.02 320.882 158 322.442 157.28C324.042 156.56 325.882 156.2 327.962 156.2C330.122 156.2 331.942 156.58 333.422 157.34C334.942 158.06 336.202 159 337.202 160.16V146.84C337.202 146.44 337.322 146.1 337.562 145.82C337.842 145.54 338.202 145.4 338.642 145.4H343.742C344.142 145.4 344.482 145.54 344.762 145.82C345.042 146.1 345.182 146.44 345.182 146.84V186.56C345.182 186.96 345.042 187.3 344.762 187.58C344.482 187.86 344.142 188 343.742 188H339.002C338.562 188 338.202 187.86 337.922 187.58C337.682 187.3 337.562 186.96 337.562 186.56V184.34C336.562 185.58 335.282 186.6 333.722 187.4C332.202 188.2 330.282 188.6 327.962 188.6ZM330.182 182.18C331.862 182.18 333.202 181.8 334.202 181.04C335.202 180.28 335.942 179.32 336.422 178.16C336.902 176.96 337.162 175.74 337.202 174.5C337.242 173.78 337.262 173.02 337.262 172.22C337.262 171.38 337.242 170.6 337.202 169.88C337.162 168.68 336.882 167.54 336.362 166.46C335.842 165.34 335.082 164.42 334.082 163.7C333.082 162.98 331.782 162.62 330.182 162.62C328.502 162.62 327.162 163 326.162 163.76C325.202 164.48 324.502 165.44 324.062 166.64C323.622 167.84 323.362 169.16 323.282 170.6C323.242 171.8 323.242 173 323.282 174.2C323.362 175.64 323.622 176.96 324.062 178.16C324.502 179.36 325.202 180.34 326.162 181.1C327.162 181.82 328.502 182.18 330.182 182.18ZM352.392 197.54C351.992 197.54 351.652 197.4 351.372 197.12C351.092 196.84 350.952 196.5 350.952 196.1V192.5C350.952 192.1 351.072 191.76 351.312 191.48C351.592 191.2 351.912 191.06 352.272 191.06C353.952 190.98 355.332 190.5 356.412 189.62C357.532 188.78 358.412 187.48 359.052 185.72C359.732 183.96 360.212 181.74 360.492 179.06C360.812 176.38 360.972 173.18 360.972 169.46C360.972 165.74 360.812 162.54 360.492 159.86C360.212 157.18 359.732 154.98 359.052 153.26C358.412 151.5 357.532 150.2 356.412 149.36C355.332 148.48 353.952 148 352.272 147.92C351.912 147.92 351.592 147.78 351.312 147.5C351.072 147.22 350.952 146.88 350.952 146.48V142.88C350.952 142.48 351.092 142.14 351.372 141.86C351.652 141.58 351.992 141.44 352.392 141.44C355.032 141.44 357.352 141.98 359.352 143.06C361.352 144.1 362.992 145.76 364.272 148.04C365.592 150.28 366.572 153.18 367.212 156.74C367.852 160.26 368.172 164.5 368.172 169.46C368.172 174.38 367.852 178.62 367.212 182.18C366.572 185.74 365.592 188.64 364.272 190.88C362.992 193.16 361.352 194.84 359.352 195.92C357.352 197 355.032 197.54 352.392 197.54Z" fill="white"/>
</svg>
